<?xml version="1.0" encoding="UTF-8"?>
<svg xmlns="http://www.w3.org/2000/svg" xmlns:xlink="http://www.w3.org/1999/xlink" width="2px" height="2px" viewBox="0 0 2 2" version="1.1">
<defs>
<filter id="alpha" filterUnits="objectBoundingBox" x="0%" y="0%" width="100%" height="100%">
  <feColorMatrix type="matrix" in="SourceGraphic" values="0 0 0 0 1 0 0 0 0 1 0 0 0 0 1 0 0 0 1 0"/>
</filter>
<mask id="mask0">
  <g filter="url(#alpha)">
<rect x="0" y="0" width="2" height="2" style="fill:rgb(0%,0%,0%);fill-opacity:0.101961;stroke:none;"/>
  </g>
</mask>
<clipPath id="clip1">
  <rect x="0" y="0" width="2" height="2"/>
</clipPath>
<g id="surface5" clip-path="url(#clip1)">
<path style=" stroke:none;fill-rule:nonzero;fill:rgb(19.607843%,19.607843%,19.607843%);fill-opacity:1;" d="M 1.417969 0.667969 C 1.417969 0.898438 1.230469 1.082031 1 1.082031 C 0.769531 1.082031 0.582031 0.898438 0.582031 0.667969 C 0.582031 0.4375 0.769531 0.25 1 0.25 C 1.230469 0.25 1.417969 0.4375 1.417969 0.667969 Z M 1.417969 0.667969 "/>
</g>
</defs>
<g id="surface1">
<use xlink:href="#surface5" mask="url(#mask0)"/>
<path style="fill:none;stroke-width:2;stroke-linecap:butt;stroke-linejoin:miter;stroke:rgb(19.607843%,19.607843%,19.607843%);stroke-opacity:1;stroke-miterlimit:4;" d="M 17.015625 8.015625 C 17.015625 10.78125 14.765625 12.984375 12 12.984375 C 9.234375 12.984375 6.984375 10.78125 6.984375 8.015625 C 6.984375 5.25 9.234375 3 12 3 C 14.765625 3 17.015625 5.25 17.015625 8.015625 Z M 17.015625 8.015625 " transform="matrix(0.0833333,0,0,0.0833333,0,0)"/>
<path style="fill:none;stroke-width:2;stroke-linecap:round;stroke-linejoin:miter;stroke:rgb(19.607843%,19.607843%,19.607843%);stroke-opacity:1;stroke-miterlimit:4;" d="M 3 21 C 3.9375 17.90625 6.421875 17.015625 12 17.015625 C 17.578125 17.015625 20.0625 17.90625 21 21 " transform="matrix(0.0833333,0,0,0.0833333,0,0)"/>
</g>
</svg>
